<svg width="1308" height="300" viewBox="0 0 1308 300" fill="none" xmlns="http://www.w3.org/2000/svg">
<g clip-path="url(#clip0_139_6)">
<path d="M132.046 122.511C119.656 116.106 89.7121 58.0574 81.758 64.4382C73.8039 70.8191 69.8664 97.9187 81.843 114.627C93.8195 131.335 120.515 143.045 126.82 152.59C133.124 162.135 132.225 169.309 130.734 171.105C129.242 172.901 76.9006 135.351 63.7668 142.245C50.633 149.138 55.4436 167.056 68.9113 181.075C82.3791 195.094 125.097 190.837 133.467 197.097C141.837 203.358 143.053 213.211 139.47 213.211C135.887 213.211 96.7317 203.724 82.9944 206.135C69.2571 208.547 62.9992 217.822 83.0295 227.645C103.06 237.469 135.84 230.244 141.412 235.91C146.985 241.576 143.405 244.271 139.224 244.576C135.043 244.881 106.956 243.137 97.1008 244.646C87.2453 246.155 98.9201 261.073 104.006 264.949C109.092 268.825 127.616 270.586 132.992 269.68C138.368 268.775 143.736 261.893 147.934 263.68C152.132 265.468 148.854 277.122 150.351 279.208C151.848 281.294 164.097 281.874 165.878 279.181C167.659 276.489 162.872 268.134 165.852 264.24C168.831 260.346 175.417 267.51 185.27 263.909C195.122 260.308 217.203 243.24 217.789 233.382C218.375 223.523 178.965 241.514 168.808 241.233C161.636 240.061 158.639 234.975 163.115 232.28C167.592 229.585 230.009 216.035 234.767 204.076C239.525 192.117 235.939 193.916 228.477 193.93C221.015 193.945 177.421 212.241 172.927 205.078C168.433 197.915 231.738 178.711 238.271 162.861C244.804 147.011 246.875 127.892 238.206 125.516C229.537 123.14 194.958 165.923 181.212 163.854C167.466 161.786 180.902 157.582 186.863 149.792C192.825 142.002 225.641 114.486 225.922 104.628C226.203 94.7693 228.875 84.905 217.822 83.7302C206.768 82.5554 179.949 123.527 173.967 119.95C167.985 116.373 189.462 96.9197 192.717 77.7947C195.972 58.6697 185.182 38.9646 179.208 40.1775C173.235 41.3904 173.533 41.3816 173.542 46.7605C173.551 52.1394 176.569 70.0574 173 80.2205C169.432 90.3836 169.151 97.8513 166.159 96.0642C163.168 94.2771 163.151 83.2234 164.929 74.5574C166.707 65.8914 171.755 47.3611 168.758 41.6892C165.761 36.0173 159.746 14.2175 137.05 19.9216C114.354 25.6257 115.883 46.2478 118.007 59.9851C120.131 73.7224 126.113 84.4685 131.217 97.6052C136.321 110.742 137.577 125.37 132.046 122.511Z" fill="white"/>
<path d="M342.136 137C341.955 134.727 341.102 132.955 339.58 131.682C338.08 130.409 335.795 129.773 332.727 129.773C330.773 129.773 329.17 130.011 327.92 130.489C326.693 130.943 325.784 131.568 325.193 132.364C324.602 133.159 324.295 134.068 324.273 135.091C324.227 135.932 324.375 136.693 324.716 137.375C325.08 138.034 325.648 138.636 326.42 139.182C327.193 139.705 328.182 140.182 329.386 140.614C330.591 141.045 332.023 141.432 333.682 141.773L339.409 143C343.273 143.818 346.58 144.898 349.33 146.239C352.08 147.58 354.33 149.159 356.08 150.977C357.83 152.773 359.114 154.795 359.932 157.045C360.773 159.295 361.205 161.75 361.227 164.409C361.205 169 360.057 172.886 357.784 176.068C355.511 179.25 352.261 181.67 348.034 183.33C343.83 184.989 338.773 185.818 332.864 185.818C326.795 185.818 321.5 184.92 316.977 183.125C312.477 181.33 308.977 178.568 306.477 174.841C304 171.091 302.75 166.295 302.727 160.455H320.727C320.841 162.591 321.375 164.386 322.33 165.841C323.284 167.295 324.625 168.398 326.352 169.148C328.102 169.898 330.182 170.273 332.591 170.273C334.614 170.273 336.307 170.023 337.67 169.523C339.034 169.023 340.068 168.33 340.773 167.443C341.477 166.557 341.841 165.545 341.864 164.409C341.841 163.341 341.489 162.409 340.807 161.614C340.148 160.795 339.057 160.068 337.534 159.432C336.011 158.773 333.955 158.159 331.364 157.591L324.409 156.091C318.227 154.75 313.352 152.511 309.784 149.375C306.239 146.216 304.477 141.909 304.5 136.455C304.477 132.023 305.659 128.148 308.045 124.83C310.455 121.489 313.784 118.886 318.034 117.023C322.307 115.159 327.205 114.227 332.727 114.227C338.364 114.227 343.239 115.17 347.352 117.057C351.466 118.943 354.636 121.602 356.864 125.034C359.114 128.443 360.25 132.432 360.273 137H342.136ZM383.855 185H363.401L386.446 115.182H412.355L435.401 185H414.946L399.673 134.409H399.128L383.855 185ZM380.037 157.455H418.491V171.636H380.037V157.455ZM451.091 115.182L465.409 164.409H465.955L480.273 115.182H501.682L478.636 185H452.727L429.682 115.182H451.091ZM508.406 185V115.182H558.724V130.455H527.361V142.455H556.134V157.727H527.361V169.727H558.588V185H508.406ZM568.125 185V115.182H587.08V169.727H615.307V185H568.125ZM607.449 115.182H628.585L642.222 143.545H642.767L656.403 115.182H677.54L651.903 163.045V185H633.085V163.045L607.449 115.182ZM748.832 185H721.969V115.182H748.56C755.741 115.182 761.946 116.58 767.173 119.375C772.423 122.148 776.469 126.148 779.31 131.375C782.173 136.58 783.605 142.818 783.605 150.091C783.605 157.364 782.185 163.614 779.344 168.841C776.503 174.045 772.48 178.045 767.276 180.841C762.071 183.614 755.923 185 748.832 185ZM740.923 168.909H748.151C751.605 168.909 754.548 168.352 756.98 167.239C759.435 166.125 761.298 164.205 762.571 161.477C763.866 158.75 764.514 154.955 764.514 150.091C764.514 145.227 763.855 141.432 762.537 138.705C761.241 135.977 759.332 134.057 756.81 132.943C754.31 131.83 751.241 131.273 747.605 131.273H740.923V168.909ZM792.375 185V115.182H842.693V130.455H811.33V142.455H840.102V157.727H811.33V169.727H842.557V185H792.375ZM852.094 185V115.182H882.366C887.685 115.182 892.151 115.898 895.764 117.33C899.401 118.761 902.139 120.784 903.98 123.398C905.844 126.011 906.776 129.091 906.776 132.636C906.776 135.205 906.207 137.545 905.071 139.659C903.957 141.773 902.389 143.545 900.366 144.977C898.344 146.386 895.98 147.364 893.276 147.909V148.591C896.276 148.705 899.003 149.466 901.457 150.875C903.912 152.261 905.866 154.182 907.321 156.636C908.776 159.068 909.503 161.932 909.503 165.227C909.503 169.045 908.503 172.443 906.503 175.42C904.526 178.398 901.707 180.739 898.048 182.443C894.389 184.148 890.026 185 884.957 185H852.094ZM871.048 169.864H879.912C883.094 169.864 885.48 169.273 887.071 168.091C888.662 166.886 889.457 165.114 889.457 162.773C889.457 161.136 889.082 159.75 888.332 158.614C887.582 157.477 886.514 156.614 885.128 156.023C883.764 155.432 882.116 155.136 880.185 155.136H871.048V169.864ZM871.048 143.409H878.821C880.48 143.409 881.946 143.148 883.219 142.625C884.491 142.102 885.48 141.352 886.185 140.375C886.912 139.375 887.276 138.159 887.276 136.727C887.276 134.568 886.503 132.92 884.957 131.784C883.412 130.625 881.457 130.045 879.094 130.045H871.048V143.409ZM935.173 115.182V185H916.219V115.182H935.173ZM942.247 130.455V115.182H1002.93V130.455H981.929V185H963.247V130.455H942.247ZM1094.37 141.364H1075.14C1075.01 139.773 1074.64 138.33 1074.05 137.034C1073.48 135.739 1072.69 134.625 1071.66 133.693C1070.66 132.739 1069.45 132.011 1068.02 131.511C1066.59 130.989 1064.96 130.727 1063.14 130.727C1059.96 130.727 1057.27 131.5 1055.06 133.045C1052.88 134.591 1051.22 136.807 1050.09 139.693C1048.97 142.58 1048.41 146.045 1048.41 150.091C1048.41 154.364 1048.98 157.943 1050.12 160.83C1051.28 163.693 1052.95 165.852 1055.13 167.307C1057.31 168.739 1059.94 169.455 1063.01 169.455C1064.76 169.455 1066.32 169.239 1067.71 168.807C1069.1 168.352 1070.3 167.705 1071.32 166.864C1072.35 166.023 1073.18 165.011 1073.81 163.83C1074.47 162.625 1074.91 161.273 1075.14 159.773L1094.37 159.909C1094.14 162.864 1093.31 165.875 1091.88 168.943C1090.45 171.989 1088.41 174.807 1085.78 177.398C1083.16 179.966 1079.93 182.034 1076.06 183.602C1072.2 185.17 1067.71 185.955 1062.6 185.955C1056.19 185.955 1050.44 184.58 1045.35 181.83C1040.28 179.08 1036.27 175.034 1033.31 169.693C1030.38 164.352 1028.91 157.818 1028.91 150.091C1028.91 142.318 1030.41 135.773 1033.41 130.455C1036.41 125.114 1040.46 121.08 1045.55 118.352C1050.64 115.602 1056.32 114.227 1062.6 114.227C1067.01 114.227 1071.06 114.83 1074.77 116.034C1078.47 117.239 1081.72 119 1084.52 121.318C1087.31 123.614 1089.56 126.443 1091.27 129.807C1092.97 133.17 1094.01 137.023 1094.37 141.364ZM1118.95 185H1098.49L1121.54 115.182H1147.45L1170.49 185H1150.04L1134.77 134.409H1134.22L1118.95 185ZM1115.13 157.455H1153.59V171.636H1115.13V157.455ZM1177.22 185V115.182H1207.36C1212.54 115.182 1217.07 116.125 1220.96 118.011C1224.84 119.898 1227.87 122.614 1230.03 126.159C1232.18 129.705 1233.26 133.955 1233.26 138.909C1233.26 143.909 1232.15 148.125 1229.92 151.557C1227.72 154.989 1224.62 157.58 1220.62 159.33C1216.64 161.08 1211.99 161.955 1206.67 161.955H1188.67V147.227H1202.86C1205.08 147.227 1206.98 146.955 1208.55 146.409C1210.14 145.841 1211.36 144.943 1212.2 143.716C1213.06 142.489 1213.49 140.886 1213.49 138.909C1213.49 136.909 1213.06 135.284 1212.2 134.034C1211.36 132.761 1210.14 131.83 1208.55 131.239C1206.98 130.625 1205.08 130.318 1202.86 130.318H1196.17V185H1177.22ZM1218.13 152.955L1235.58 185H1214.99L1197.95 152.955H1218.13ZM1268.21 185H1241.34V115.182H1267.93C1275.12 115.182 1281.32 116.58 1286.55 119.375C1291.8 122.148 1295.84 126.148 1298.68 131.375C1301.55 136.58 1302.98 142.818 1302.98 150.091C1302.98 157.364 1301.56 163.614 1298.72 168.841C1295.88 174.045 1291.86 178.045 1286.65 180.841C1281.45 183.614 1275.3 185 1268.21 185ZM1260.3 168.909H1267.53C1270.98 168.909 1273.92 168.352 1276.36 167.239C1278.81 166.125 1280.67 164.205 1281.95 161.477C1283.24 158.75 1283.89 154.955 1283.89 150.091C1283.89 145.227 1283.23 141.432 1281.91 138.705C1280.62 135.977 1278.71 134.057 1276.18 132.943C1273.68 131.83 1270.62 131.273 1266.98 131.273H1260.3V168.909Z" fill="white"/>
</g>
<defs>
<clipPath id="clip0_139_6">
<rect width="1308" height="300" fill="white"/>
</clipPath>
</defs>
</svg>
