<svg width="1029" height="300" viewBox="0 0 1029 300" fill="none" xmlns="http://www.w3.org/2000/svg">
<g clip-path="url(#clip0_131_5)">
<path d="M132.046 122.511C119.656 116.106 89.7121 58.0574 81.758 64.4382C73.8039 70.8191 69.8664 97.9187 81.843 114.627C93.8195 131.335 120.515 143.045 126.82 152.59C133.124 162.135 132.225 169.309 130.734 171.105C129.242 172.901 76.9006 135.351 63.7668 142.245C50.633 149.138 55.4436 167.056 68.9113 181.075C82.3791 195.094 125.097 190.837 133.467 197.097C141.837 203.358 143.053 213.211 139.47 213.211C135.887 213.211 96.7317 203.724 82.9944 206.135C69.2571 208.547 62.9992 217.822 83.0295 227.645C103.06 237.469 135.84 230.244 141.412 235.91C146.985 241.576 143.405 244.271 139.224 244.576C135.043 244.881 106.956 243.137 97.1008 244.646C87.2453 246.155 98.9201 261.073 104.006 264.949C109.092 268.825 127.616 270.586 132.992 269.68C138.368 268.775 143.736 261.893 147.934 263.68C152.132 265.468 148.854 277.122 150.351 279.208C151.848 281.294 164.097 281.874 165.878 279.181C167.659 276.489 162.872 268.134 165.852 264.24C168.831 260.346 175.417 267.51 185.27 263.909C195.122 260.308 217.203 243.24 217.789 233.382C218.375 223.523 178.965 241.514 168.808 241.233C161.636 240.061 158.639 234.975 163.115 232.28C167.592 229.585 230.009 216.035 234.767 204.076C239.525 192.117 235.939 193.916 228.477 193.93C221.015 193.945 177.421 212.241 172.927 205.078C168.433 197.915 231.738 178.711 238.271 162.861C244.804 147.011 246.875 127.892 238.206 125.516C229.537 123.14 194.958 165.923 181.212 163.854C167.466 161.786 180.902 157.582 186.863 149.792C192.825 142.002 225.641 114.486 225.922 104.628C226.203 94.7693 228.875 84.905 217.822 83.7302C206.768 82.5554 179.949 123.527 173.967 119.95C167.985 116.373 189.462 96.9197 192.717 77.7947C195.972 58.6697 185.182 38.9646 179.208 40.1775C173.235 41.3904 173.533 41.3816 173.542 46.7605C173.551 52.1394 176.569 70.0574 173 80.2205C169.432 90.3836 169.151 97.8513 166.159 96.0642C163.168 94.2771 163.151 83.2234 164.929 74.5574C166.707 65.8914 171.755 47.3611 168.758 41.6892C165.761 36.0173 159.746 14.2175 137.05 19.9216C114.354 25.6257 115.883 46.2478 118.007 59.9851C120.131 73.7224 126.113 84.4685 131.217 97.6052C136.321 110.742 137.577 125.37 132.046 122.511Z" fill="white"/>
<path d="M342.136 137C341.955 134.727 341.102 132.955 339.58 131.682C338.08 130.409 335.795 129.773 332.727 129.773C330.773 129.773 329.17 130.011 327.92 130.489C326.693 130.943 325.784 131.568 325.193 132.364C324.602 133.159 324.295 134.068 324.273 135.091C324.227 135.932 324.375 136.693 324.716 137.375C325.08 138.034 325.648 138.636 326.42 139.182C327.193 139.705 328.182 140.182 329.386 140.614C330.591 141.045 332.023 141.432 333.682 141.773L339.409 143C343.273 143.818 346.58 144.898 349.33 146.239C352.08 147.58 354.33 149.159 356.08 150.977C357.83 152.773 359.114 154.795 359.932 157.045C360.773 159.295 361.205 161.75 361.227 164.409C361.205 169 360.057 172.886 357.784 176.068C355.511 179.25 352.261 181.67 348.034 183.33C343.83 184.989 338.773 185.818 332.864 185.818C326.795 185.818 321.5 184.92 316.977 183.125C312.477 181.33 308.977 178.568 306.477 174.841C304 171.091 302.75 166.295 302.727 160.455H320.727C320.841 162.591 321.375 164.386 322.33 165.841C323.284 167.295 324.625 168.398 326.352 169.148C328.102 169.898 330.182 170.273 332.591 170.273C334.614 170.273 336.307 170.023 337.67 169.523C339.034 169.023 340.068 168.33 340.773 167.443C341.477 166.557 341.841 165.545 341.864 164.409C341.841 163.341 341.489 162.409 340.807 161.614C340.148 160.795 339.057 160.068 337.534 159.432C336.011 158.773 333.955 158.159 331.364 157.591L324.409 156.091C318.227 154.75 313.352 152.511 309.784 149.375C306.239 146.216 304.477 141.909 304.5 136.455C304.477 132.023 305.659 128.148 308.045 124.83C310.455 121.489 313.784 118.886 318.034 117.023C322.307 115.159 327.205 114.227 332.727 114.227C338.364 114.227 343.239 115.17 347.352 117.057C351.466 118.943 354.636 121.602 356.864 125.034C359.114 128.443 360.25 132.432 360.273 137H342.136ZM383.855 185H363.401L386.446 115.182H412.355L435.401 185H414.946L399.673 134.409H399.128L383.855 185ZM380.037 157.455H418.491V171.636H380.037V157.455ZM451.091 115.182L465.409 164.409H465.955L480.273 115.182H501.682L478.636 185H452.727L429.682 115.182H451.091ZM508.406 185V115.182H558.724V130.455H527.361V142.455H556.134V157.727H527.361V169.727H558.588V185H508.406ZM568.125 185V115.182H587.08V169.727H615.307V185H568.125ZM607.449 115.182H628.585L642.222 143.545H642.767L656.403 115.182H677.54L651.903 163.045V185H633.085V163.045L607.449 115.182ZM740.48 137C740.298 134.727 739.446 132.955 737.923 131.682C736.423 130.409 734.139 129.773 731.071 129.773C729.116 129.773 727.514 130.011 726.264 130.489C725.037 130.943 724.128 131.568 723.537 132.364C722.946 133.159 722.639 134.068 722.616 135.091C722.571 135.932 722.719 136.693 723.06 137.375C723.423 138.034 723.991 138.636 724.764 139.182C725.537 139.705 726.526 140.182 727.73 140.614C728.935 141.045 730.366 141.432 732.026 141.773L737.753 143C741.616 143.818 744.923 144.898 747.673 146.239C750.423 147.58 752.673 149.159 754.423 150.977C756.173 152.773 757.457 154.795 758.276 157.045C759.116 159.295 759.548 161.75 759.571 164.409C759.548 169 758.401 172.886 756.128 176.068C753.855 179.25 750.605 181.67 746.378 183.33C742.173 184.989 737.116 185.818 731.207 185.818C725.139 185.818 719.844 184.92 715.321 183.125C710.821 181.33 707.321 178.568 704.821 174.841C702.344 171.091 701.094 166.295 701.071 160.455H719.071C719.185 162.591 719.719 164.386 720.673 165.841C721.628 167.295 722.969 168.398 724.696 169.148C726.446 169.898 728.526 170.273 730.935 170.273C732.957 170.273 734.651 170.023 736.014 169.523C737.378 169.023 738.412 168.33 739.116 167.443C739.821 166.557 740.185 165.545 740.207 164.409C740.185 163.341 739.832 162.409 739.151 161.614C738.491 160.795 737.401 160.068 735.878 159.432C734.355 158.773 732.298 158.159 729.707 157.591L722.753 156.091C716.571 154.75 711.696 152.511 708.128 149.375C704.582 146.216 702.821 141.909 702.844 136.455C702.821 132.023 704.003 128.148 706.389 124.83C708.798 121.489 712.128 118.886 716.378 117.023C720.651 115.159 725.548 114.227 731.071 114.227C736.707 114.227 741.582 115.17 745.696 117.057C749.81 118.943 752.98 121.602 755.207 125.034C757.457 128.443 758.594 132.432 758.616 137H740.48ZM764.872 130.455V115.182H825.554V130.455H804.554V185H785.872V130.455H764.872ZM842.011 185H821.557L844.602 115.182H870.511L893.557 185H873.102L857.83 134.409H857.284L842.011 185ZM838.193 157.455H876.648V171.636H838.193V157.455ZM935.199 137C935.017 134.727 934.165 132.955 932.642 131.682C931.142 130.409 928.858 129.773 925.79 129.773C923.835 129.773 922.233 130.011 920.983 130.489C919.756 130.943 918.847 131.568 918.256 132.364C917.665 133.159 917.358 134.068 917.335 135.091C917.29 135.932 917.438 136.693 917.778 137.375C918.142 138.034 918.71 138.636 919.483 139.182C920.256 139.705 921.244 140.182 922.449 140.614C923.653 141.045 925.085 141.432 926.744 141.773L932.472 143C936.335 143.818 939.642 144.898 942.392 146.239C945.142 147.58 947.392 149.159 949.142 150.977C950.892 152.773 952.176 154.795 952.994 157.045C953.835 159.295 954.267 161.75 954.29 164.409C954.267 169 953.119 172.886 950.847 176.068C948.574 179.25 945.324 181.67 941.097 183.33C936.892 184.989 931.835 185.818 925.926 185.818C919.858 185.818 914.563 184.92 910.04 183.125C905.54 181.33 902.04 178.568 899.54 174.841C897.063 171.091 895.813 166.295 895.79 160.455H913.79C913.903 162.591 914.438 164.386 915.392 165.841C916.347 167.295 917.688 168.398 919.415 169.148C921.165 169.898 923.244 170.273 925.653 170.273C927.676 170.273 929.369 170.023 930.733 169.523C932.097 169.023 933.131 168.33 933.835 167.443C934.54 166.557 934.903 165.545 934.926 164.409C934.903 163.341 934.551 162.409 933.869 161.614C933.21 160.795 932.119 160.068 930.597 159.432C929.074 158.773 927.017 158.159 924.426 157.591L917.472 156.091C911.29 154.75 906.415 152.511 902.847 149.375C899.301 146.216 897.54 141.909 897.562 136.455C897.54 132.023 898.722 128.148 901.108 124.83C903.517 121.489 906.847 118.886 911.097 117.023C915.369 115.159 920.267 114.227 925.79 114.227C931.426 114.227 936.301 115.17 940.415 117.057C944.528 118.943 947.699 121.602 949.926 125.034C952.176 128.443 953.313 132.432 953.335 137H935.199ZM961.5 185V115.182H980.455V142.455H1005.55V115.182H1024.5V185H1005.55V157.727H980.455V185H961.5Z" fill="white"/>
</g>
<defs>
<clipPath id="clip0_131_5">
<rect width="1029" height="300" fill="white"/>
</clipPath>
</defs>
</svg>
