<svg width="1455" height="300" viewBox="0 0 1455 300" fill="none" xmlns="http://www.w3.org/2000/svg">
<g clip-path="url(#clip0_139_2)">
<path d="M132.046 122.511C119.656 116.106 89.7121 58.0574 81.758 64.4382C73.8039 70.8191 69.8664 97.9187 81.843 114.627C93.8195 131.335 120.515 143.045 126.82 152.59C133.124 162.135 132.225 169.309 130.734 171.105C129.242 172.901 76.9006 135.351 63.7668 142.245C50.633 149.138 55.4436 167.056 68.9113 181.075C82.3791 195.094 125.097 190.837 133.467 197.097C141.837 203.358 143.053 213.211 139.47 213.211C135.887 213.211 96.7317 203.724 82.9944 206.135C69.2571 208.547 62.9992 217.822 83.0295 227.645C103.06 237.469 135.84 230.244 141.412 235.91C146.985 241.576 143.405 244.271 139.224 244.576C135.043 244.881 106.956 243.137 97.1008 244.646C87.2453 246.155 98.9201 261.073 104.006 264.949C109.092 268.825 127.616 270.586 132.992 269.68C138.368 268.775 143.736 261.893 147.934 263.68C152.132 265.468 148.854 277.122 150.351 279.208C151.848 281.294 164.097 281.874 165.878 279.181C167.659 276.489 162.872 268.134 165.852 264.24C168.831 260.346 175.417 267.51 185.27 263.909C195.122 260.308 217.203 243.24 217.789 233.382C218.375 223.523 178.965 241.514 168.808 241.233C161.636 240.061 158.639 234.975 163.115 232.28C167.592 229.585 230.009 216.035 234.767 204.076C239.525 192.117 235.939 193.916 228.477 193.93C221.015 193.945 177.421 212.241 172.927 205.078C168.433 197.915 231.738 178.711 238.271 162.861C244.804 147.011 246.875 127.892 238.206 125.516C229.537 123.14 194.958 165.923 181.212 163.854C167.466 161.786 180.902 157.582 186.863 149.792C192.825 142.002 225.641 114.486 225.922 104.628C226.203 94.7693 228.875 84.905 217.822 83.7302C206.768 82.5554 179.949 123.527 173.967 119.95C167.985 116.373 189.462 96.9197 192.717 77.7947C195.972 58.6697 185.182 38.9646 179.208 40.1775C173.235 41.3904 173.533 41.3816 173.542 46.7605C173.551 52.1394 176.569 70.0574 173 80.2205C169.432 90.3836 169.151 97.8513 166.159 96.0642C163.168 94.2771 163.151 83.2234 164.929 74.5574C166.707 65.8914 171.755 47.3611 168.758 41.6892C165.761 36.0173 159.746 14.2175 137.05 19.9216C114.354 25.6257 115.883 46.2478 118.007 59.9851C120.131 73.7224 126.113 84.4685 131.217 97.6052C136.321 110.742 137.577 125.37 132.046 122.511Z" fill="white"/>
<path d="M342.136 137C341.955 134.727 341.102 132.955 339.58 131.682C338.08 130.409 335.795 129.773 332.727 129.773C330.773 129.773 329.17 130.011 327.92 130.489C326.693 130.943 325.784 131.568 325.193 132.364C324.602 133.159 324.295 134.068 324.273 135.091C324.227 135.932 324.375 136.693 324.716 137.375C325.08 138.034 325.648 138.636 326.42 139.182C327.193 139.705 328.182 140.182 329.386 140.614C330.591 141.045 332.023 141.432 333.682 141.773L339.409 143C343.273 143.818 346.58 144.898 349.33 146.239C352.08 147.58 354.33 149.159 356.08 150.977C357.83 152.773 359.114 154.795 359.932 157.045C360.773 159.295 361.205 161.75 361.227 164.409C361.205 169 360.057 172.886 357.784 176.068C355.511 179.25 352.261 181.67 348.034 183.33C343.83 184.989 338.773 185.818 332.864 185.818C326.795 185.818 321.5 184.92 316.977 183.125C312.477 181.33 308.977 178.568 306.477 174.841C304 171.091 302.75 166.295 302.727 160.455H320.727C320.841 162.591 321.375 164.386 322.33 165.841C323.284 167.295 324.625 168.398 326.352 169.148C328.102 169.898 330.182 170.273 332.591 170.273C334.614 170.273 336.307 170.023 337.67 169.523C339.034 169.023 340.068 168.33 340.773 167.443C341.477 166.557 341.841 165.545 341.864 164.409C341.841 163.341 341.489 162.409 340.807 161.614C340.148 160.795 339.057 160.068 337.534 159.432C336.011 158.773 333.955 158.159 331.364 157.591L324.409 156.091C318.227 154.75 313.352 152.511 309.784 149.375C306.239 146.216 304.477 141.909 304.5 136.455C304.477 132.023 305.659 128.148 308.045 124.83C310.455 121.489 313.784 118.886 318.034 117.023C322.307 115.159 327.205 114.227 332.727 114.227C338.364 114.227 343.239 115.17 347.352 117.057C351.466 118.943 354.636 121.602 356.864 125.034C359.114 128.443 360.25 132.432 360.273 137H342.136ZM383.855 185H363.401L386.446 115.182H412.355L435.401 185H414.946L399.673 134.409H399.128L383.855 185ZM380.037 157.455H418.491V171.636H380.037V157.455ZM451.091 115.182L465.409 164.409H465.955L480.273 115.182H501.682L478.636 185H452.727L429.682 115.182H451.091ZM508.406 185V115.182H558.724V130.455H527.361V142.455H556.134V157.727H527.361V169.727H558.588V185H508.406ZM568.125 185V115.182H587.08V169.727H615.307V185H568.125ZM607.449 115.182H628.585L642.222 143.545H642.767L656.403 115.182H677.54L651.903 163.045V185H633.085V163.045L607.449 115.182ZM741.06 115.182L755.378 164.409H755.923L770.241 115.182H791.651L768.605 185H742.696L719.651 115.182H741.06ZM817.33 115.182V185H798.375V115.182H817.33ZM826.312 185V115.182H856.449C861.631 115.182 866.165 116.125 870.051 118.011C873.938 119.898 876.96 122.614 879.119 126.159C881.278 129.705 882.358 133.955 882.358 138.909C882.358 143.909 881.244 148.125 879.017 151.557C876.813 154.989 873.71 157.58 869.71 159.33C865.733 161.08 861.085 161.955 855.767 161.955H837.767V147.227H851.949C854.176 147.227 856.074 146.955 857.642 146.409C859.233 145.841 860.449 144.943 861.29 143.716C862.153 142.489 862.585 140.886 862.585 138.909C862.585 136.909 862.153 135.284 861.29 134.034C860.449 132.761 859.233 131.83 857.642 131.239C856.074 130.625 854.176 130.318 851.949 130.318H845.267V185H826.312ZM867.222 152.955L884.676 185H864.085L847.04 152.955H867.222ZM888.528 130.455V115.182H949.21V130.455H928.21V185H909.528V130.455H888.528ZM997.662 115.182H1016.62V159.909C1016.62 165.227 1015.34 169.83 1012.8 173.716C1010.28 177.58 1006.75 180.568 1002.23 182.682C997.707 184.773 992.457 185.818 986.48 185.818C980.457 185.818 975.185 184.773 970.662 182.682C966.139 180.568 962.616 177.58 960.094 173.716C957.594 169.83 956.344 165.227 956.344 159.909V115.182H975.298V158.273C975.298 160.432 975.776 162.364 976.73 164.068C977.685 165.75 979.003 167.068 980.685 168.023C982.389 168.977 984.321 169.455 986.48 169.455C988.662 169.455 990.594 168.977 992.276 168.023C993.957 167.068 995.276 165.75 996.23 164.068C997.185 162.364 997.662 160.432 997.662 158.273V115.182ZM1043.76 185H1023.31L1046.35 115.182H1072.26L1095.31 185H1074.85L1059.58 134.409H1059.03L1043.76 185ZM1039.94 157.455H1078.4V171.636H1039.94V157.455ZM1102.03 185V115.182H1120.99V169.727H1149.21V185H1102.03ZM1241.18 141.364H1221.95C1221.82 139.773 1221.45 138.33 1220.86 137.034C1220.3 135.739 1219.5 134.625 1218.48 133.693C1217.48 132.739 1216.26 132.011 1214.83 131.511C1213.4 130.989 1211.77 130.727 1209.95 130.727C1206.77 130.727 1204.08 131.5 1201.88 133.045C1199.69 134.591 1198.03 136.807 1196.9 139.693C1195.78 142.58 1195.23 146.045 1195.23 150.091C1195.23 154.364 1195.8 157.943 1196.93 160.83C1198.09 163.693 1199.76 165.852 1201.94 167.307C1204.13 168.739 1206.75 169.455 1209.82 169.455C1211.57 169.455 1213.14 169.239 1214.52 168.807C1215.91 168.352 1217.11 167.705 1218.14 166.864C1219.16 166.023 1219.99 165.011 1220.62 163.83C1221.28 162.625 1221.73 161.273 1221.95 159.773L1241.18 159.909C1240.95 162.864 1240.13 165.875 1238.69 168.943C1237.26 171.989 1235.23 174.807 1232.59 177.398C1229.98 179.966 1226.74 182.034 1222.88 183.602C1219.01 185.17 1214.52 185.955 1209.41 185.955C1203 185.955 1197.25 184.58 1192.16 181.83C1187.09 179.08 1183.08 175.034 1180.12 169.693C1177.19 164.352 1175.73 157.818 1175.73 150.091C1175.73 142.318 1177.23 135.773 1180.23 130.455C1183.23 125.114 1187.27 121.08 1192.36 118.352C1197.45 115.602 1203.14 114.227 1209.41 114.227C1213.82 114.227 1217.88 114.83 1221.58 116.034C1225.28 117.239 1228.53 119 1231.33 121.318C1234.13 123.614 1236.38 126.443 1238.08 129.807C1239.78 133.17 1240.82 137.023 1241.18 141.364ZM1265.76 185H1245.31L1268.35 115.182H1294.26L1317.31 185H1296.85L1281.58 134.409H1281.03L1265.76 185ZM1261.94 157.455H1300.4V171.636H1261.94V157.455ZM1324.03 185V115.182H1354.17C1359.35 115.182 1363.88 116.125 1367.77 118.011C1371.66 119.898 1374.68 122.614 1376.84 126.159C1379 129.705 1380.08 133.955 1380.08 138.909C1380.08 143.909 1378.96 148.125 1376.74 151.557C1374.53 154.989 1371.43 157.58 1367.43 159.33C1363.45 161.08 1358.8 161.955 1353.49 161.955H1335.49V147.227H1349.67C1351.89 147.227 1353.79 146.955 1355.36 146.409C1356.95 145.841 1358.17 144.943 1359.01 143.716C1359.87 142.489 1360.3 140.886 1360.3 138.909C1360.3 136.909 1359.87 135.284 1359.01 134.034C1358.17 132.761 1356.95 131.83 1355.36 131.239C1353.79 130.625 1351.89 130.318 1349.67 130.318H1342.99V185H1324.03ZM1364.94 152.955L1382.39 185H1361.8L1344.76 152.955H1364.94ZM1415.02 185H1388.16V115.182H1414.75C1421.93 115.182 1428.13 116.58 1433.36 119.375C1438.61 122.148 1442.66 126.148 1445.5 131.375C1448.36 136.58 1449.79 142.818 1449.79 150.091C1449.79 157.364 1448.37 163.614 1445.53 168.841C1442.69 174.045 1438.67 178.045 1433.46 180.841C1428.26 183.614 1422.11 185 1415.02 185ZM1407.11 168.909H1414.34C1417.79 168.909 1420.74 168.352 1423.17 167.239C1425.62 166.125 1427.49 164.205 1428.76 161.477C1430.05 158.75 1430.7 154.955 1430.7 150.091C1430.7 145.227 1430.04 141.432 1428.72 138.705C1427.43 135.977 1425.52 134.057 1423 132.943C1420.5 131.83 1417.43 131.273 1413.79 131.273H1407.11V168.909Z" fill="white"/>
</g>
<defs>
<clipPath id="clip0_139_2">
<rect width="1455" height="300" fill="white"/>
</clipPath>
</defs>
</svg>
